<svg xmlns="http://www.w3.org/2000/svg" version="1.1" xmlns:xlink="http://www.w3.org/1999/xlink" xmlns:svgjs="http://svgjs.dev/svgjs" width="1500" height="541" viewBox="0 0 1500 541"><g transform="matrix(1,0,0,1,-0.9090909090909918,0.5925012922842257)"><svg viewBox="0 0 396 143" data-background-color="#d2d6dc" preserveAspectRatio="xMidYMid meet" height="541" width="1500" xmlns="http://www.w3.org/2000/svg" xmlns:xlink="http://www.w3.org/1999/xlink"><g id="tight-bounds" transform="matrix(1,0,0,1,0.2400000000000091,-0.156613095742415)"><svg viewBox="0 0 395.52 143.31322619148486" height="143.31322619148486" width="395.52"><g><svg viewBox="0 0 528.9322138006792 191.6539795620438" height="143.31322619148486" width="395.52"><g transform="matrix(1,0,0,1,133.41221380067913,59.223861522419185)"><svg viewBox="0 0 395.52 73.20625651720542" height="73.20625651720542" width="395.52"><g id="textblocktransform"><svg viewBox="0 0 395.52 73.20625651720542" height="73.20625651720542" width="395.52" id="textblock"><g><svg viewBox="0 0 395.52 73.20625651720542" height="73.20625651720542" width="395.52"><g transform="matrix(1,0,0,1,0,0)"><svg width="395.52" viewBox="0.55 -38.4 287.68 53.25" height="73.20625651720542" data-palette-color="#636365"><path d="M33-37.45L33-37.7Q34.05-38.1 35.95-38.1 37.85-38.1 39.35-37.85L39.35-37.85Q37.8-26.35 36.93-17.03 36.05-7.7 35.98-7.2 35.9-6.7 35.9-6.3L35.9-6.3Q35.95-5 37.15-5L37.15-5Q40.15-5 45.5-11.9L45.5-11.9Q46.45-9.25 46.6-8.35L46.6-8.35Q44.2-4.55 40.83-2.13 37.45 0.3 34.45 0.3 31.45 0.3 30.3-1.25 29.15-2.8 29.15-4.7L29.15-4.7Q29.15-5.15 29.28-6.45 29.4-7.75 31.25-22.65L31.25-22.65 23.05-3.7 18.8-3.7 16.35-22.35 12.85-6.85Q12-3.15 10.08-1.4 8.15 0.35 5.85 0.35 3.55 0.35 2.1-1L2.1-1Q0.55-2.45 0.55-5.1L0.55-5.1Q0.55-10.4 8.75-14.15L8.75-14.15Q13.2-35.5 13.55-37.8L13.55-37.8Q14.75-38.1 16.78-38.1 18.8-38.1 19.55-38L19.55-38 19.9-38 23-14.75 33-37.45ZM4.1-5.95L4.1-5.95Q4.1-4.35 5.35-4.35L5.35-4.35Q6.2-4.35 6.75-5.7L6.75-5.7Q7.45-7.35 7.9-10.05L7.9-10.05Q4.1-7.9 4.1-5.95ZM50.75 14.85L50.75 14.85Q47.9 14.85 45.85 13.13 43.8 11.4 43.8 8.1L43.8 8.1Q43.8 4.05 47.9 0.2L47.9 0.2Q45-0.05 43.25-1.7 41.5-3.35 41.5-6.35L41.5-6.35Q41.5-7.75 41.85-10.55 42.2-13.35 42.6-16.6 43-19.85 43.45-23.5L43.45-23.5Q45-24.05 46.3-24.05 47.6-24.05 48.25-23.95 48.9-23.85 49.5-23.2 50.1-22.55 50.1-21.35L50.1-21.35 48.45-8.6Q48.35-7.8 48.35-7.5L48.35-7.5Q48.35-4.55 51.05-4.55L51.05-4.55Q53.5-4.55 55.05-6.85L55.05-6.85Q55.2-8 55.8-13.48 56.4-18.95 56.8-22L56.8-22Q57.25-22.95 58.67-23.5 60.1-24.05 61-24.05L61-24.05Q62.6-24.05 63.9-23.65L63.9-23.65 61.55-5.2Q67.4-4.15 68.55 2.85L68.55 2.85Q68.35 3.8 66.65 5.85L66.65 5.85Q65.65-0.4 61.15-1.75L61.15-1.75 60.35 4.5Q59.8 9 57.5 11.93 55.2 14.85 50.75 14.85ZM47.7 7.15Q47.7 8.8 48.5 9.6 49.3 10.4 50.62 10.4 51.95 10.4 52.65 9.3 53.35 8.2 53.75 4.9L53.75 4.9 54.4-0.6Q47.85 2.8 47.7 7.15L47.7 7.15ZM81.3 0.3L81.3 0.3Q73.55 0.3 69.92-3.65 66.3-7.6 66.3-14.08 66.3-20.55 68.52-25.88 70.75-31.2 75.15-34.63 79.55-38.05 84.67-38.05 89.8-38.05 92.72-35.58 95.65-33.1 95.65-28.93 95.65-24.75 93.07-22 90.5-19.25 87.05-19.25 83.59-19.25 81.7-20.78 79.8-22.3 79.8-24.03 79.8-25.75 81.17-26.73 82.55-27.7 85.2-27.7L85.2-27.7Q84.55-27.05 84.55-25.98 84.55-24.9 85.2-24.1 85.84-23.3 87.2-23.3 88.55-23.3 89.9-24.73 91.25-26.15 91.25-28.5 91.25-30.85 89.82-32.25 88.4-33.65 85.8-33.65L85.8-33.65Q82.4-33.65 79.62-30.9 76.84-28.15 75.4-23.9 73.95-19.65 73.95-14.95L73.95-14.95Q73.95-10.9 75.7-7.8L75.7-7.8Q76.59-6.2 78.37-5.25 80.15-4.3 82.55-4.3L82.55-4.3Q86.65-4.3 90.45-6.93 94.25-9.55 96.84-13.7L96.84-13.7 98.55-10.65Q95.59-5.85 91.15-2.78 86.7 0.3 81.3 0.3ZM117.44 0.25L117.44 0.25Q112.84 0.25 111.34-2.95L111.34-2.95Q108.74 0.3 104.67 0.3 100.59 0.3 97.82-2.45 95.04-5.2 95.04-9.7L95.04-9.7Q95.04-16.25 98.89-20.15 102.74-24.05 108.64-24.05L108.64-24.05Q108.79-24.05 108.94-24.05L108.94-24.05Q111.44-24.05 113.54-23.2L113.54-23.2Q114.89-24.05 116.82-24.05 118.74-24.05 119.59-23.55L119.59-23.55Q119.14-19.85 118.64-16.28 118.14-12.7 117.94-11.2L117.94-11.2Q117.49-7.8 117.49-6.3L117.49-6.3Q117.49-4.3 119.09-4.3L119.09-4.3Q120.34-4.3 121.74-5.98 123.14-7.65 124.19-11.25L124.19-11.25Q125.64-9.95 126.19-8.35L126.19-8.35Q124.74-3.6 122.29-1.68 119.84 0.25 117.44 0.25ZM109.39-20.15L109.39-20.15Q106.19-20.15 104.32-17.73 102.44-15.3 102.09-10.5L102.09-10.5Q102.04-10.05 102.04-9.65L102.04-9.65Q102.04-7.2 103.22-5.75 104.39-4.3 106.24-4.3L106.24-4.3Q109.39-4.3 110.99-8.75L110.99-8.75 112.19-19.55Q110.74-20.15 109.39-20.15ZM145.24-18L145.24-18Q145.24-12.8 139.04-10.05L139.04-10.05Q139.19-9.15 139.49-7.9L139.49-7.9Q140.39-4.2 142.49-4.1L142.49-4.1Q142.64-4.1 142.79-4.1L142.79-4.1Q146.79-4.1 148.74-11.15L148.74-11.15Q149.79-10.2 150.74-8.3L150.74-8.3Q150.04-5.6 148.77-3.75 147.49-1.9 145.99-1.1L145.99-1.1Q143.34 0.3 140.99 0.3L140.99 0.3Q135.49 0.3 133.29-5.85L133.29-5.85Q132.44-8.3 132.14-10.85L132.14-10.85Q134.99-11.55 136.64-13.18 138.29-14.8 138.29-16.65L138.29-16.65Q138.29-19.85 135.09-19.85L135.09-19.85Q133.34-19.85 132.09-18.53 130.84-17.2 130.44-15.35L130.44-15.35Q130.14-12.8 129.47-7.33 128.79-1.85 128.59 0L128.59 0 121.94 0Q125.54-30.65 126.29-37.65L126.29-37.65Q127.34-38.05 129.14-38.05L129.14-38.05Q133.04-38.05 133.04-35.75L133.04-35.75 133.04-35.45Q132.04-26.4 131.19-21.6L131.19-21.6Q133.94-24.15 138.09-24.15L138.09-24.15Q141.19-24.15 143.22-22.55 145.24-20.95 145.24-18ZM156.69-11.2Q159.79-11.85 161.31-13.7 162.84-15.55 162.84-17.28 162.84-19 161.91-19.63 160.99-20.25 159.89-20.25L159.89-20.25Q157.54-20.25 155.76-17.63 153.99-15 153.99-11.38 153.99-7.75 155.71-5.98 157.44-4.2 159.99-4.2L159.99-4.2Q163.74-4.2 167.19-6.8 170.64-9.4 172.79-13.6L172.79-13.6Q173.89-12.55 174.79-11L174.79-11Q173.14-7.25 168.94-3.65L168.94-3.65Q166.84-1.9 163.96-0.8 161.09 0.3 158.04 0.3L158.04 0.3Q153.04 0.3 150.14-2.75L150.14-2.75Q147.04-6.05 147.04-11.2 147.04-16.35 150.91-20.2 154.79-24.05 160.19-24.05L160.19-24.05Q164.04-24.05 166.44-22.38 168.84-20.7 168.89-17.85L168.89-17.85Q168.89-14 165.81-11.6 162.74-9.2 157.39-8.25L157.39-8.25 156.69-11.2ZM174.54-36.15L174.54-36.15Q176.89-38.4 180.04-38.4L180.04-38.4Q182.19-38.4 183.36-37.27 184.54-36.15 184.54-34.35L184.54-34.35Q184.54-32.55 183.56-30.53 182.59-28.5 182.11-27.5 181.64-26.5 180.71-24.9 179.79-23.3 179.34-22.55L179.34-22.55Q178.79-21.5 176.79-18.2L176.79-18.2 185.14-18.2 188.04-35.65Q189.09-36.05 190.79-36.05 192.49-36.05 193.51-35.4 194.54-34.75 194.54-32.95L194.54-32.95Q194.54-32.3 194.46-31.78 194.39-31.25 191.89-17.7L191.89-17.7Q198.19-16.2 198.19-9.9L198.19-9.9Q198.19-9.1 198.09-8.25L198.09-8.25Q197.59-3.85 195.31-1.93 193.04 0 189.91 0 186.79 0 185.04-1.73 183.29-3.45 183.29-6.2L183.29-6.2Q183.29-7.15 183.39-7.65L183.39-7.65 184.19-12.45 171.69-12.3 170.34-15.2Q169.64-16.85 169.64-17.15 169.64-17.45 169.69-17.5L169.69-17.5Q176.79-26.75 177.29-32.7L177.29-32.7Q177.29-32.85 177.29-33L177.29-33Q177.29-35.2 174.54-36.15ZM194.19-9.2L194.19-9.2Q194.19-12.3 190.99-12.6L190.99-12.6Q190.14-7.9 190.14-7.2L190.14-7.2Q190.14-5.1 191.54-5.1L191.54-5.1Q192.54-5.1 193.24-5.9L193.24-5.9Q194.19-7.15 194.19-9.2ZM215.08-32.15L215.08-32.15 215.03-31.3Q214.88-28.95 213.63-19.7L213.63-19.7Q212.08-8.6 212.08-8.1L212.08-8.1Q212.08-6.6 213.03-5.58 213.98-4.55 215.56-4.55 217.13-4.55 218.46-5.63 219.78-6.7 220.48-8.2L220.48-8.2 223.28-33.75Q223.53-36.05 225.16-37.08 226.78-38.1 228.58-38.1L228.58-38.1Q229.78-38.1 231.08-37.6L231.08-37.6 227.73-9.9Q234.33-12.95 235.88-13.5L235.88-13.5 236.63-10Q232.23-8.2 227.28-5.85L227.28-5.85 226.03 4.35Q225.73 7.05 224.71 8.97 223.68 10.9 222.23 11.9L222.23 11.9Q219.58 13.7 216.46 13.7 213.33 13.7 211.26 11.43 209.18 9.15 209.18 5.95 209.18 2.75 211.28 0.15L211.28 0.15Q208.63-0.3 206.88-2.18 205.13-4.05 205.13-6.8L205.13-6.8Q205.13-7.1 205.23-7.9L205.23-7.9 206.83-20.2Q200.68-24.1 200.68-29.8L200.68-29.8Q200.68-35.1 204.53-37.1L204.53-37.1Q206.33-38.1 208.66-38.1 210.98-38.1 213.03-36.63 215.08-35.15 215.08-32.15ZM206.78-34.05L206.78-34.05Q205.58-34.05 204.81-32.9 204.03-31.75 204.03-30.15L204.03-30.15Q204.03-26.65 207.33-24.4L207.33-24.4 208.28-31.6Q208.28-33.65 207.28-34L207.28-34Q207.08-34.05 206.78-34.05ZM212.98 5.3L212.98 5.3Q212.98 6.95 213.81 7.85 214.63 8.75 215.78 8.75 216.93 8.75 217.83 7.93 218.73 7.1 218.93 5.6L218.93 5.6 219.83-2.25Q212.98 1.5 212.98 5.3ZM246.38-24.05L246.38-24.05Q250.98-24.05 254.06-21.1 257.13-18.15 257.13-13.9L257.13-13.9Q257.13-7.45 253.36-3.58 249.58 0.3 244.23 0.3 238.88 0.3 235.76-2.75 232.63-5.8 232.63-10.3L232.63-10.3Q232.63-16.6 236.48-20.3L236.48-20.3Q240.38-24.05 246.38-24.05ZM245.41-20Q243.03-20 241.43-17.3 239.83-14.6 239.68-10.5L239.68-10.5Q239.68-7.6 240.86-5.7 242.03-3.8 244.43-3.8 246.83-3.8 248.46-6.45 250.08-9.1 250.08-12.5 250.08-15.9 248.93-17.9L248.93-17.9Q247.78-20 245.41-20ZM281.58-23.55L281.58-23.55Q279.53-7.35 279.53-6.3L279.53-6.3Q279.53-4.3 280.98-4.3L280.98-4.3Q282.28-4.3 283.8-6.08 285.33-7.85 286.23-11.4L286.23-11.4Q287.88-9.6 288.23-8.6L288.23-8.6Q287.08-3.75 284.58-1.75 282.08 0.25 279.43 0.25L279.43 0.25Q275.08 0.25 273.58-3.1L273.58-3.1Q270.98 0.25 266.63 0.25L266.63 0.25Q263.03 0.25 261.08-1.55 259.13-3.35 259.13-6.25L259.13-6.25Q259.13-6.95 259.38-8.7L259.38-8.7Q260.53-18 261.13-23.5L261.13-23.5Q262.68-24.05 263.98-24.05 265.28-24.05 265.93-23.95 266.58-23.85 267.18-23.2 267.78-22.55 267.78-21.35L267.78-21.35 266.13-8.6Q266.03-8 266.03-7.5L266.03-7.5Q266.03-4.55 268.73-4.55L268.73-4.55Q271.23-4.55 272.88-7L272.88-7Q272.88-7.55 272.98-8.75L272.98-8.75 274.63-22.05Q274.98-22.9 276.13-23.48 277.28-24.05 279-24.05 280.73-24.05 281.58-23.55Z" opacity="1" transform="matrix(1,0,0,1,0,0)" fill="#636365" class="wordmark-text-0" data-fill-palette-color="primary" id="text-0"></path></svg></g></svg></g></svg></g></svg></g><g><svg viewBox="0 0 116.12997358712335 191.6539795620438" height="191.6539795620438" width="116.12997358712335"><g><svg xmlns="http://www.w3.org/2000/svg" xmlns:xlink="http://www.w3.org/1999/xlink" version="1.1" x="0" y="0" viewBox="24.072999999999997 5.852730941208653 52.94500000000001 87.37726905879136" enable-background="new 0 0 100 100" xml:space="preserve" width="116.12997358712335" height="191.6539795620438" class="icon-icon-0" data-fill-palette-color="accent" id="icon-0"><path d="M42.793 20.007c0 0-0.369 0.429-0.737 1.129C42.058 21.138 42.955 21.225 42.793 20.007z" fill="#89939e" data-fill-palette-color="accent"></path><g fill="#89939e" data-fill-palette-color="accent"><path d="M64.119 24.702c0.365-2.023-0.01-3.758-1.117-5.158-2.596-3.281-8.281-3.624-8.883-3.653-4.539-1.672-8.212-1.876-10.918-0.606-2.068 0.97-2.88 2.499-3.094 2.98-0.287 0.054-0.571 0.12-0.851 0.194-1.591-1.49-3.344-4.392-4.383-10.032 0 0 0.458-0.809 0.277-2.556 0 0-1.94-0.315-1.62 1.671 0 0 1.004 6.544 5.275 11.045-2.726 0.852-4.922 2.588-5.331 2.925-2.02 0.066-4.089 0.181-6.215 0.361l-3.186 40.316 52.944-33.115C77.018 29.074 72.35 26.776 64.119 24.702zM61.499 31.58c0 0-0.36 8.281-12.347 6.1 0 0-7.243 4.322-10.348-2.682-2.478 1.71-7.027-0.096-5.391-5.149-0.569-0.71-2.812-4.938 0.759-8.204 0.828-0.624 2.794-1.974 5.058-2.626 0.011 0.012 0.022 0.023 0.033 0.033 0.818 0.789 1.742 1.502 2.792 2.084l0 0c-0.045 0.085-0.089 0.176-0.133 0.271l0 0c-0.001 0.003-0.002 0.007-0.004 0.009-0.02 0.043-0.041 0.081-0.06 0.127 0.002 0 0.003 0 0.005 0-0.47 1.114-0.835 2.775-0.083 4.388 0 0 8.168 7.157 12.302 1.215 0 0 0.857-2.242 0.309-4.572-0.015-0.003-0.031-0.005-0.045-0.006-0.449-1.694-1.662-3.499-4.502-4.725 0 0-4.25-2.428-7.053 2.166 0 0.007 0 0.012 0.001 0.019-0.554-0.019-1.785-0.173-3.012-1.117-0.011-0.009-0.02-0.018-0.03-0.025 0.194-0.046 0.391-0.085 0.589-0.118l0.155-0.025 0.052-0.149c0.007-0.016 0.666-1.794 2.894-2.832 2.579-1.203 6.123-0.985 10.533 0.646l0.039 0.016 0.043 0.002c0.061 0.001 5.993 0.252 8.528 3.453 1.005 1.271 1.344 2.856 1.013 4.716-0.125 0.548-0.316 1.132-0.582 1.758C63.016 26.349 67.562 30.427 61.499 31.58z" fill="#89939e" data-fill-palette-color="accent"></path><polygon points="25.351,74.245 76.001,40.29 77.018,29.932 24.073,63.087  " fill="#89939e" data-fill-palette-color="accent"></polygon><polygon points="26.992,93.23 74.834,57.207 75.48,47.83 26.038,82.18  " fill="#89939e" data-fill-palette-color="accent"></polygon></g></svg></g></svg></g></svg></g><defs></defs></svg><rect width="395.52" height="143.31322619148486" fill="none" stroke="none" visibility="hidden"></rect></g></svg></g></svg>